<?xml version="1.0" encoding="iso-8859-1"?>
<!-- Generator: Adobe Illustrator 25.2.3, SVG Export Plug-In . SVG Version: 6.00 Build 0)  -->
<svg version="1.1" xmlns="http://www.w3.org/2000/svg" xmlns:xlink="http://www.w3.org/1999/xlink" x="0px" y="0px"
	 width="141.732px" height="141.732px" viewBox="0 0 141.732 141.732" enable-background="new 0 0 141.732 141.732"
	 xml:space="preserve">
<g id="Warstwa_2">
</g>
<g id="Warstwa_1">
	<g>
		<g>
			<g>
				<path fill="#FFFFFF" d="M41.126,105.205c19.716,0,39.432,0,59.149,0c3.861,0,3.867-6,0-6c-19.716,0-39.432,0-59.149,0
					C37.265,99.205,37.259,105.205,41.126,105.205L41.126,105.205z"/>
			</g>
		</g>
		<g>
			<g>
				<path fill="#FFFFFF" d="M50.347,120.409c13.569,0,27.137,0,40.706,0c3.861,0,3.867-6,0-6c-13.569,0-27.137,0-40.706,0
					C46.486,114.409,46.48,120.409,50.347,120.409L50.347,120.409z"/>
			</g>
		</g>
	</g>
</g>
<g id="Warstwa_3">
	<g>
		<g>
			<path fill="#FFFFFF" d="M122.822,78.63c-18.751,0-37.501,0-56.252,0c-8.763,0-17.525,0-26.287,0
				c-8.046,0-17.662,1.55-24.79-2.854C5.161,69.392,3.402,54.185,14.914,47.741c4.718-2.641,10.965-2.735,16.057-1.089
				c1.734,0.561,3.975-0.983,3.798-2.893c-0.386-4.169,0.489-8.951,3.258-12.187c3.027-3.537,8.211-4.556,12.605-3.549
				c1.392,0.319,2.74,0.859,3.989,1.544c0.316,0.173,2.392,1.608,1.621,0.987c1.182,0.953,3.104,1.337,4.243,0
				c2.005-2.354,3.057-5.542,4.669-8.173c2.716-4.431,6.251-8.711,10.908-11.191c8.145-4.338,19.381-1.642,25.502,5.088
				c5.217,5.736,6.349,14.834,4.399,22.18c-0.52,1.957,0.949,3.702,2.893,3.798c6.795,0.332,14.427,2.575,19.655,7.008
				C137.45,56.842,137.037,77.313,122.822,78.63c-3.813,0.353-3.85,6.357,0,6c16.054-1.488,22.12-21.07,14.648-33.946
				c-5.569-9.598-18.033-13.911-28.614-14.429c0.964,1.266,1.929,2.532,2.893,3.798c2.678-10.088,0.523-22.302-7.414-29.468
				c-7.12-6.428-18.338-9.468-27.519-6.235c-5.064,1.783-9.331,5.173-12.747,9.265c-1.868,2.237-3.503,4.667-4.955,7.191
				c-0.944,1.641-1.656,4.078-2.872,5.506c1.414,0,2.828,0,4.243,0c-6.812-5.492-17.097-6.4-24.311-1.133
				c-5.613,4.098-8.032,11.818-7.405,18.581c1.266-0.964,2.532-1.929,3.798-2.893c-13.709-4.432-29.603,2.96-31.631,18.091
				c-1.203,8.973,4.019,17.406,11.529,22c6.238,3.816,12.85,3.674,19.849,3.674c20.705,0,41.409,0,62.114,0
				c9.465,0,18.93,0,28.395,0C126.683,84.63,126.689,78.63,122.822,78.63z"/>
		</g>
	</g>
</g>
<g id="Warstwa_4">
</g>
<g id="Warstwa_5">
</g>
</svg>
