<?xml version="1.0" encoding="iso-8859-1"?>
<!-- Generator: Adobe Illustrator 25.2.3, SVG Export Plug-In . SVG Version: 6.00 Build 0)  -->
<svg version="1.1" xmlns="http://www.w3.org/2000/svg" xmlns:xlink="http://www.w3.org/1999/xlink" x="0px" y="0px"
	 width="141.732px" height="141.732px" viewBox="0 0 141.732 141.732" enable-background="new 0 0 141.732 141.732"
	 xml:space="preserve">
<g id="Warstwa_2">
</g>
<g id="Warstwa_1">
	<g>
		<g>
			<g>
				<path fill="#FFFFFF" d="M23.997,105.614c9.758,0,19.516,0,29.274,0c3.861,0,3.867-6,0-6c-9.758,0-19.516,0-29.274,0
					C20.136,99.614,20.129,105.614,23.997,105.614L23.997,105.614z"/>
			</g>
		</g>
		<g>
			<g>
				<path fill="#FFFFFF" d="M91.162,105.138c8.86,0,17.72,0,26.58,0c3.861,0,3.867-6,0-6c-8.86,0-17.72,0-26.58,0
					C87.301,99.138,87.295,105.138,91.162,105.138L91.162,105.138z"/>
			</g>
		</g>
		<g>
			<g>
				<path fill="#FFFFFF" d="M83.027,118.609c9.758,0,19.516,0,29.274,0c3.861,0,3.867-6,0-6c-9.758,0-19.516,0-29.274,0
					C79.166,112.609,79.16,118.609,83.027,118.609L83.027,118.609z"/>
			</g>
		</g>
		<g>
			<g>
				<path fill="#FFFFFF" d="M29.703,118.634c4.02,0,8.04,0,12.06,0c3.861,0,3.867-6,0-6c-4.02,0-8.04,0-12.06,0
					C25.843,112.634,25.836,118.634,29.703,118.634L29.703,118.634z"/>
			</g>
		</g>
		<g>
			<g>
				<path fill="#FFFFFF" d="M66.894,105.237c4.02,0,8.04,0,12.06,0c3.861,0,3.867-6,0-6c-4.02,0-8.04,0-12.06,0
					C63.033,99.237,63.027,105.237,66.894,105.237L66.894,105.237z"/>
			</g>
		</g>
		<g>
			<g>
				<path fill="#FFFFFF" d="M51.496,118.592c5.861,0,11.723,0,17.584,0c3.861,0,3.867-6,0-6c-5.861,0-11.723,0-17.584,0
					C47.635,112.592,47.629,118.592,51.496,118.592L51.496,118.592z"/>
			</g>
		</g>
	</g>
</g>
<g id="Warstwa_3">
	<g>
		<g>
			<path fill="#FFFFFF" d="M122.991,78.63c-18.751,0-37.501,0-56.252,0c-8.762,0-17.525,0-26.287,0
				c-8.046,0-17.662,1.55-24.79-2.854C5.331,69.392,3.572,54.185,15.084,47.741c4.718-2.641,10.965-2.735,16.057-1.089
				c1.734,0.561,3.975-0.983,3.798-2.893c-0.386-4.169,0.489-8.951,3.258-12.187c3.027-3.537,8.211-4.556,12.605-3.549
				c1.392,0.319,2.74,0.859,3.989,1.544c0.316,0.173,2.392,1.608,1.621,0.987c1.182,0.953,3.104,1.337,4.243,0
				c2.005-2.354,3.057-5.542,4.669-8.173c2.716-4.431,6.251-8.711,10.908-11.191c8.145-4.338,19.381-1.642,25.502,5.088
				c5.217,5.736,6.35,14.834,4.399,22.18c-0.52,1.957,0.949,3.702,2.893,3.798c6.795,0.332,14.427,2.575,19.655,7.008
				C137.619,56.842,137.207,77.313,122.991,78.63c-3.813,0.353-3.85,6.357,0,6c16.054-1.488,22.12-21.07,14.648-33.946
				c-5.569-9.598-18.033-13.911-28.614-14.429c0.964,1.266,1.929,2.532,2.893,3.798c2.678-10.088,0.523-22.302-7.414-29.468
				c-7.12-6.428-18.338-9.468-27.519-6.235c-5.064,1.783-9.331,5.173-12.747,9.265c-1.868,2.237-3.503,4.667-4.955,7.191
				c-0.944,1.641-1.656,4.078-2.872,5.506c1.414,0,2.828,0,4.243,0c-6.812-5.492-17.097-6.4-24.311-1.133
				c-5.613,4.098-8.032,11.818-7.405,18.581c1.266-0.964,2.532-1.929,3.798-2.893c-13.709-4.432-29.603,2.96-31.631,18.091
				c-1.203,8.973,4.019,17.406,11.529,22c6.238,3.816,12.85,3.674,19.849,3.674c20.705,0,41.409,0,62.114,0
				c9.465,0,18.93,0,28.395,0C126.852,84.63,126.858,78.63,122.991,78.63z"/>
		</g>
	</g>
</g>
<g id="Warstwa_4">
</g>
<g id="Warstwa_5">
</g>
</svg>
